Coordinates
version=1
nRows=14
nColumns=24
inDegrees=yes

Units are S.I. units (second, meters, Newtons, ...)
Angles are in degrees.

endheader
time	pelvis_tilt	pelvis_list	pelvis_rotation	pelvis_tx	pelvis_ty	pelvis_tz	hip_flexion_r	hip_adduction_r	hip_rotation_r	knee_angle_r	ankle_angle_r	subtalar_angle_r	mtp_angle_r	hip_flexion_l	hip_adduction_l	hip_rotation_l	knee_angle_l	ankle_angle_l	subtalar_angle_l	mtp_angle_l	lumbar_extension	lumbar_bending	lumbar_rotation
      1.85000000	     37.63579166	      3.18103602	     -1.92554662	      0.68881595	      1.06869468	     -0.33050314	     36.12751546	    -10.97875142	      9.76390082	    -63.04156433	    -24.03734395	      0.00000000	      0.00000000	     29.05888113	    -14.18950872	     -6.03129599	    -68.60062456	    -13.65959509	      0.00000000	      0.00000000	      0.00000000	      0.00000000	      0.00000000
      1.86000000	     37.72902843	      3.18853491	     -1.93867536	      0.68891621	      1.06880610	     -0.33059860	     35.90767627	    -11.01529873	      9.34422015	    -64.01091198	    -24.13732871	      0.00000000	      0.00000000	     28.95322602	    -14.12675308	     -6.03312324	    -68.55573293	    -13.65933606	      0.00000000	      0.00000000	      0.00000000	      0.00000000	      0.00000000
      1.87000000	     37.82673529	      3.19599601	     -1.93831611	      0.68901920	      1.06894048	     -0.33071209	     35.68520737	    -11.06689563	      8.91008000	    -65.03059087	    -24.27766938	      0.00000000	      0.00000000	     28.84826632	    -14.05584928	     -6.03089393	    -68.51841180	    -13.66589362	      0.00000000	      0.00000000	      0.00000000	      0.00000000	      0.00000000
      1.88000000	     37.92559316	      3.20462422	     -1.92374672	      0.68911501	      1.06908512	     -0.33084140	     35.46299049	    -11.13446347	      8.46557956	    -66.09709993	    -24.45074164	      0.00000000	      0.00000000	     28.74422214	    -13.97657214	     -6.02600622	    -68.48480727	    -13.67999854	      0.00000000	      0.00000000	      0.00000000	      0.00000000	      0.00000000
      1.89000000	     38.02287270	      3.21615499	     -1.89575143	      0.68919225	      1.06922370	     -0.33098115	     35.24685939	    -11.21776859	      8.01481486	    -67.20713200	    -24.64834972	      0.00000000	      0.00000000	     28.64161662	    -13.88933954	     -6.02122753	    -68.45363755	    -13.70077436	      0.00000000	      0.00000000	      0.00000000	      0.00000000	      0.00000000
      1.90000000	     38.11772090	      3.23241495	     -1.85599033	      0.68924079	      1.06934506	     -0.33112419	     35.04567791	    -11.31445998	      7.56393598	    -68.35668415	    -24.86586230	      0.00000000	      0.00000000	     28.54201224	    -13.79546685	     -6.02011465	    -68.42574265	    -13.72545030	      0.00000000	      0.00000000	      0.00000000	      0.00000000	      0.00000000
      1.91000000	     38.20957990	      3.25437729	     -1.80709990	      0.68925566	      1.06944233	     -0.33127250	     34.86875906	    -11.41984553	      7.12226548	    -69.54119596	    -25.10435511	      0.00000000	      0.00000000	     28.44815010	    -13.69742792	     -6.02649455	    -68.40321590	    -13.74976694	      0.00000000	      0.00000000	      0.00000000	      0.00000000	      0.00000000
      1.92000000	     38.29587520	      3.28076100	     -1.75305187	      0.68924463	      1.06951663	     -0.33142814	     34.72255990	    -11.52785123	      6.70190577	    -70.75630394	    -25.36992563	      0.00000000	      0.00000000	     28.36340281	    -13.59897214	     -6.04415311	    -68.38839119	    -13.76918173	      0.00000000	      0.00000000	      0.00000000	      0.00000000	      0.00000000
      1.93000000	     38.37209609	      3.30843497	     -1.69887820	      0.68923087	      1.06957728	     -0.33158603	     34.60933582	    -11.63163148	      6.31527152	    -71.99780572	    -25.67046015	      0.00000000	      0.00000000	     28.29080098	    -13.50500307	     -6.07652094	    -68.38309687	    -13.78047539	      0.00000000	      0.00000000	      0.00000000	      0.00000000	      0.00000000
      1.94000000	     38.43439308	      3.33470736	     -1.64946338	      0.68922342	      1.06962916	     -0.33174101	     34.52807966	    -11.72358182	      5.97165428	    -73.26054630	    -26.01091537	      0.00000000	      0.00000000	     28.23211608	    -13.42110784	     -6.12622852	    -68.38844744	    -13.78303349	      0.00000000	      0.00000000	      0.00000000	      0.00000000	      0.00000000
      1.95000000	     38.48210989	      3.35834104	     -1.60819668	      0.68920400	      1.06967266	     -0.33188201	     34.47601974	    -11.79649017	      5.67533787	    -74.53731743	    -26.38869663	      0.00000000	      0.00000000	     28.18757649	    -13.35254916	     -6.19465720	    -68.40503673	    -13.77918314	      0.00000000	      0.00000000	      0.00000000	      0.00000000	      0.00000000
      1.96000000	     38.51749447	      3.37899983	     -1.57676361	      0.68916541	      1.06970983	     -0.33199131	     34.44890597	    -11.84567992	      5.42575209	    -75.81915545	    -26.79100612	      0.00000000	      0.00000000	     28.15622230	    -13.30290009	     -6.28151614	    -68.43323980	    -13.77331184	      0.00000000	      0.00000000	      0.00000000	      0.00000000	      0.00000000
      1.97000000	     38.54343759	      3.39689127	     -1.55564089	      0.68912615	      1.06973083	     -0.33206010	     34.44101725	    -11.87053575	      5.21878964	    -77.09687264	    -27.19541307	      0.00000000	      0.00000000	     28.13635939	    -13.27297102	     -6.38435075	    -68.47345861	    -13.76995283	      0.00000000	      0.00000000	      0.00000000	      0.00000000	      0.00000000
      1.98000000	     38.56283776	      3.41231904	     -1.54389793	      0.68910604	      1.06971540	     -0.33209331	     34.44737255	    -11.87483783	      5.04900923	    -78.36199926	    -27.57359626	      0.00000000	      0.00000000	     28.12580735	    -13.26061126	     -6.49818521	    -68.52617797	    -13.77156643	      0.00000000	      0.00000000	      0.00000000	      0.00000000	      0.00000000
